{"title":"Teen Wolf S05E03 Dreamcatchers 1080P WEB-DL DD5 1 H 264","uid":12100657,"size":1706510130,"categoryP":"video","categoryS":"hd___tv_shows","magnet":"?xt=urn:btih:e7a66bd63fa9507bad67798cb97159faf33d48f3&amp;dn=Teen+Wolf+S05E03+Dreamcatchers+1080P+WEB-DL+DD5+1+H+264&amp;tr=udp%3A%2F%2Ftracker.openbittorrent.com%3A80&amp;tr=udp%3A%2F%2Fopen.demonii.com%3A1337&amp;tr=udp%3A%2F%2Ftracker.coppersurfer.tk%3A6969&amp;tr=udp%3A%2F%2Fexodus.desync.com%3A6969","seeders":0,"leechers":1,"uploader":"jmanwf","files":2,"time":1436286070,"description":"Scott tracks a dangerous new shapeshifter threatening Stilinski. Malia receives information about her mother's identity.\n\n\n\nVideo\nID : 2\nFormat : AVC\nFormat/Info : Advanced Video Codec\nFormat profile : High@L4\nFormat settings, CABAC : Yes\nFormat settings, ReFrames : 4 frames\nCodec ID : avc1\nCodec ID/Info : Advanced Video Coding\nDuration : 41mn 56s\nSource duration : 41mn 56s\nBit rate : 4 912 Kbps\nWidth : 1 916 pixels\nHeight : 1 076 pixels\nDisplay aspect ratio : 16:9\nFrame rate mode : Variable\nFrame rate : 23.976 fps\nMinimum frame rate : 23.976 fps\nMaximum frame rate : 24.897 fps\nColor space : YUV\nChroma subsampling : 4:2:0\nBit depth : 8 bits\nScan type : Progressive\nBits/(Pixel*Frame) : 0.099\nStream size : 1.44 GiB (91%)\nSource stream size : 1.44 GiB (91%)\nLanguage : English\nEncoded date : UTC 2015-07-07 09:23:42\nTagged date : UTC 2015-07-07 09:27:30\nColor range : Limited\nColor primaries : BT.709\nTransfer characteristics : BT.709\nMatrix coefficients : BT.709\n\nAudio #1\nID : 1\nFormat : AAC\nFormat/Info : Advanced Audio Codec\nFormat profile : LC\nCodec ID : 40\nDuration : 41mn 56s\nDuration_LastFrame : -8ms\nBit rate mode : Variable\nBit rate : 125 Kbps\nMaximum bit rate : 196 Kbps\nChannel(s) : 2 channels\nChannel positions : Front: L R\nSampling rate : 48.0 KHz\nCompression mode : Lossy\nStream size : 37.5 MiB (2%)\nLanguage : English\nEncoded date : UTC 2015-07-07 09:23:42\nTagged date : UTC 2015-07-07 09:27:30\n\nAudio #2\nID : 3\nFormat : AC-3\nFormat/Info : Audio Coding 3\nMode extension : CM (complete main)\nFormat settings, Endianness : Big\nCodec ID : ac-3\nDuration : 41mn 56s\nDuration_LastFrame : -1ms\nBit rate mode : Constant\nBit rate : 384 Kbps\nChannel(s) : 6 channels\nChannel positions : Front: L C R, Side: L R, LFE\nSampling rate : 48.0 KHz\nBit depth : 16 bits\nCompression mode : Lossy\nStream size : 115 MiB (7%)\nLanguage : English\nEncoded date : UTC 2015-07-07 09:23:42\nTagged date : UTC 2015-07-07 09:27:30\n\nText\nID : 4-CC1\nFormat : EIA-608\nMuxing mode : Final Cut\nCodec ID : c608\nDuration : 40mn 43s\nBit rate mode : Constant\nStream size : 0.00 Byte (0%)\nLanguage : English\nEncoded date : UTC 2015-07-07 09:23:42\nTagged date : UTC 2015-07-07 09:26:56\n\n\n\n &lt;a href=&quot;\nhttps://itunes.apple.com/us/tv-season/teen-wolf-season-5/id1001344135&quot; rel=&quot;nofollow&quot; target=&quot;_NEW&quot;&gt;\nhttps://itunes.apple.com/us/tv-season/teen-wolf-season-5/id1001344135&lt;/a&gt;","torrent":{"xt":"urn:btih:e7a66bd63fa9507bad67798cb97159faf33d48f3","amp;dn":"Teen+Wolf+S05E03+Dreamcatchers+1080P+WEB-DL+DD5+1+H+264","amp;tr":["udp%3A%2F%2Ftracker.openbittorrent.com%3A80","udp%3A%2F%2Fopen.demonii.com%3A1337","udp%3A%2F%2Ftracker.coppersurfer.tk%3A6969","udp%3A%2F%2Fexodus.desync.com%3A6969"],"infoHash":"e7a66bd63fa9507bad67798cb97159faf33d48f3","infoHashBuffer":{"type":"Buffer","data":[231,166,107,214,63,169,80,123,173,103,121,140,185,113,89,250,243,61,72,243]},"announce":[],"urlList":[]}}